<svg width="33" height="32" viewBox="0 0 33 32" fill="none" xmlns="http://www.w3.org/2000/svg">
<path d="M0.615658 12.0673C0.615658 5.40271 6.01837 0 12.683 0H20.5484C27.2129 0 32.6157 5.40271 32.6157 12.0673V19.9327C32.6157 26.5973 27.2129 32 20.5484 32H0.615658V12.0673Z" fill="#43FFC3"/>
<path d="M12.8295 14.2585C12.8295 15.2304 12.0548 16.0189 11.0999 16.0189C10.1451 16.0189 9.37037 15.2304 9.37037 14.2585C9.37037 13.2865 10.1455 12.498 11.0999 12.498C12.0544 12.498 12.8295 13.2869 12.8295 14.2585V14.2585Z" fill="#0A3232"/>
<path d="M23.836 14.2585C23.836 15.2304 23.0605 16.0189 22.1064 16.0189C21.1524 16.0189 20.3765 15.2304 20.3765 14.2585C20.3765 13.2865 21.1512 12.498 22.1064 12.498C23.0616 12.498 23.836 13.2869 23.836 14.2585V14.2585Z" fill="#0A3232"/>
<path d="M19.393 19.9438C19.393 20.9627 18.1223 21.4944 16.5553 21.4944C14.9883 21.4944 13.7175 20.9627 13.7175 19.9438C13.7175 18.925 14.9879 19.4625 16.5553 19.4625C18.1226 19.4625 19.393 18.9258 19.393 19.9438V19.9438Z" fill="#0A3232"/>
<path d="M22.8647 2.35474C22.8647 2.35474 27.8458 3.50191 30.0472 9.04998" stroke="#D0FFF0" stroke-width="1.82148" stroke-miterlimit="10" stroke-linecap="round"/>
<path d="M30.5628 14.1283C30.5628 14.1283 30.5628 13.2403 30.5628 12.2566" stroke="#D0FFF0" stroke-width="1.82148" stroke-miterlimit="10" stroke-linecap="round"/>
</svg>
