<svg width="297" height="201" viewBox="0 0 297 201" fill="none" xmlns="http://www.w3.org/2000/svg">
<path d="M46.4692 157.247H43.5978V43.09H236.632C245.833 43.09 253.315 50.575 253.315 59.7731V119.008C253.315 128.209 245.83 135.691 236.632 135.691H63.2626V132.82H236.635C244.253 132.82 250.45 126.623 250.45 119.005V59.7731C250.45 52.1551 244.253 45.9581 236.635 45.9581H46.4692V157.247Z" fill="#14FFB4"/>
<path d="M65.9977 111.039V117.801H63.1458V96.3417H71.0851C76.8181 96.3417 79.9036 99.0476 79.9328 103.398C79.9328 108.249 76.4936 111.043 71.1143 111.043H65.9977V111.039ZM65.9977 98.9568V108.862H70.8774C74.9622 108.862 77.1101 107.126 77.1101 103.866C77.1101 100.485 75.0239 98.9568 70.819 98.9568H65.9977Z" fill="#0A3232"/>
<path d="M97.5439 114.274C96.8982 115.303 95.9865 116.185 94.8088 116.951C93.6635 117.716 92.1321 118.096 90.2827 118.096C84.6373 118.096 81.847 114.42 81.847 109.69C81.847 104.985 84.9942 101.017 90.1951 101.017C95.3117 101.017 97.8975 104.781 97.8975 109.424V110.306H84.6114C84.845 113.599 86.7268 115.715 90.2568 115.715C92.7258 115.715 94.1956 114.598 95.1657 112.921L97.5439 114.274ZM84.6665 108.483H95.104C94.958 105.514 93.3682 103.366 90.1951 103.366C86.9896 103.366 85.0202 105.426 84.6665 108.483Z" fill="#0A3232"/>
<path d="M110.256 118.038C107.345 118.038 105.259 116.568 104.169 114.128V124.153H101.317V101.341H104.169V105.105C105.373 102.49 107.754 101.079 110.46 101.079C114.253 101.079 117.605 103.785 117.605 109.456C117.608 114.978 114.285 118.038 110.256 118.038ZM114.727 109.511C114.727 105.601 112.582 103.424 109.406 103.424C105.821 103.424 103.939 106.189 103.939 109.57C103.939 113.009 105.762 115.656 109.493 115.656C112.786 115.656 114.727 113.275 114.727 109.511Z" fill="#0A3232"/>
<path d="M129.93 118.038C127.02 118.038 124.934 116.568 123.844 114.128V124.153H120.992V101.341H123.844V105.105C125.047 102.49 127.429 101.079 130.135 101.079C133.928 101.079 137.279 103.785 137.279 109.456C137.282 114.978 133.96 118.038 129.93 118.038ZM134.401 109.511C134.401 105.601 132.257 103.424 129.08 103.424C125.495 103.424 123.613 106.189 123.613 109.57C123.613 113.009 125.437 115.656 129.168 115.656C132.461 115.656 134.401 113.275 134.401 109.511Z" fill="#0A3232"/>
<path d="M155.61 114.274C154.965 115.303 154.053 116.185 152.875 116.951C151.73 117.716 150.199 118.096 148.349 118.096C142.704 118.096 139.914 114.42 139.914 109.69C139.914 104.985 143.058 101.017 148.262 101.017C153.378 101.017 155.964 104.781 155.964 109.424V110.306H142.678C142.912 113.599 144.793 115.715 148.323 115.715C150.792 115.715 152.262 114.598 153.232 112.921L155.61 114.274ZM142.733 108.483H153.171C153.025 105.514 151.435 103.366 148.262 103.366C145.056 103.366 143.087 105.426 142.733 108.483Z" fill="#0A3232"/>
<path d="M169.328 101.105V103.632C169.328 103.632 166.703 103.622 166.324 103.632C164.062 103.684 162.239 105.543 162.239 109.686V117.801H159.387V101.338H162.21V105.543C162.946 102.487 164.591 101.105 167.06 101.105C167.566 101.105 169.328 101.105 169.328 101.105Z" fill="#0A3232"/>
<path d="M217.694 101.105V103.632C217.694 103.632 215.069 103.622 214.689 103.632C212.428 103.684 210.605 105.543 210.605 109.686V117.801H207.753V101.338H210.575V105.543C211.312 102.487 212.957 101.105 215.426 101.105C215.932 101.105 217.694 101.105 217.694 101.105Z" fill="#0A3232"/>
<path d="M188.049 109.57C188.049 104.836 191.164 101.014 196.368 101.014C201.63 101.014 204.628 104.748 204.628 109.57C204.628 114.274 201.601 118.096 196.339 118.096C190.988 118.096 188.049 114.42 188.049 109.57ZM200.394 113.95C201.306 112.804 201.747 111.335 201.747 109.57C201.747 105.923 199.924 103.395 196.368 103.395C192.841 103.395 190.959 106.04 190.959 109.57C190.959 113.184 192.695 115.685 196.339 115.685C198.162 115.685 199.515 115.098 200.394 113.95Z" fill="#0A3232"/>
<path d="M220.293 117.801V101.338H223.115V105.572C224.202 102.604 226.379 101.017 229.231 101.017C231.259 101.017 232.758 101.663 233.786 102.957C234.815 104.252 235.315 105.926 235.315 107.954V117.801H232.492V108.599C232.492 105.543 231.317 103.395 228.112 103.395C225.172 103.395 223.145 105.689 223.145 109.891V117.798H220.293V117.801Z" fill="#0A3232"/>
<path d="M183.127 112.405C182.394 114.469 180.999 115.656 178.458 115.656C174.811 115.656 173.108 113.187 173.108 109.57C173.108 106.043 174.961 103.395 178.487 103.395C181.018 103.395 182.436 104.722 183.072 106.714L185.956 106.156C184.963 103.158 182.695 101.014 178.543 101.014C173.338 101.014 170.224 104.836 170.224 109.57C170.224 114.42 173.046 118.096 178.455 118.096C182.536 118.096 184.895 115.916 186.002 112.963L183.127 112.405Z" fill="#0A3232"/>
</svg>
